<svg width="30" height="30" viewBox="0 0 30 30" fill="none" xmlns="http://www.w3.org/2000/svg">
<path d="M22.8124 19.375C23.0611 19.375 23.2995 19.2762 23.4754 19.1004C23.6512 18.9246 23.7499 18.6861 23.7499 18.4375V7.1875C23.7499 6.93886 23.6512 6.7004 23.4754 6.52459C23.2995 6.34877 23.0611 6.25 22.8124 6.25H11.5624C11.3138 6.25 11.0754 6.34877 10.8995 6.52459C10.7237 6.7004 10.6249 6.93886 10.6249 7.1875C10.6249 7.43614 10.7237 7.6746 10.8995 7.85041C11.0754 8.02623 11.3138 8.125 11.5624 8.125H20.5499L7.77495 20.9C7.68284 20.9858 7.60896 21.0893 7.55772 21.2043C7.50648 21.3193 7.47893 21.4435 7.47671 21.5693C7.47449 21.6952 7.49764 21.8203 7.54479 21.937C7.59195 22.0537 7.66213 22.1598 7.75115 22.2488C7.84017 22.3378 7.94622 22.408 8.06295 22.4552C8.17969 22.5023 8.30472 22.5255 8.4306 22.5232C8.55648 22.521 8.68062 22.4935 8.79562 22.4422C8.91062 22.391 9.01412 22.3171 9.09995 22.225L21.8749 9.45V18.4375C21.8749 18.955 22.2949 19.375 22.8124 19.375Z" fill="black"/>
</svg>
